<?xml version="1.0" standalone="no"?>
<!DOCTYPE svg PUBLIC "-//W3C//DTD SVG 20010904//EN"
 "http://www.w3.org/TR/2001/REC-SVG-20010904/DTD/svg10.dtd">
<svg version="1.0" xmlns="http://www.w3.org/2000/svg"
 width="2952.000000pt" height="1050.000000pt" viewBox="0 0 2952.000000 1050.000000"
 preserveAspectRatio="xMidYMid meet">

<g transform="translate(0.000000,1050.000000) scale(0.100000,-0.100000)"
fill="#000000" stroke="none">
<path d="M5010 9589 c-152 -13 -164 -18 -25 -11 223 13 620 6 780 -12 290 -34
570 -95 834 -181 74 -24 137 -43 139 -40 7 7 -305 104 -450 139 -153 38 -391
79 -553 96 -135 15 -595 21 -725 9z"/>
<path d="M4793 9563 c9 -2 25 -2 35 0 9 3 1 5 -18 5 -19 0 -27 -2 -17 -5z"/>
<path d="M4723 9553 c9 -2 23 -2 30 0 6 3 -1 5 -18 5 -16 0 -22 -2 -12 -5z"/>
<path d="M4658 9543 c6 -2 18 -2 25 0 6 3 1 5 -13 5 -14 0 -19 -2 -12 -5z"/>
<path d="M4598 9533 c6 -2 18 -2 25 0 6 3 1 5 -13 5 -14 0 -19 -2 -12 -5z"/>
<path d="M4548 9523 c7 -3 16 -2 19 1 4 3 -2 6 -13 5 -11 0 -14 -3 -6 -6z"/>
<path d="M4498 9513 c7 -3 16 -2 19 1 4 3 -2 6 -13 5 -11 0 -14 -3 -6 -6z"/>
<path d="M4448 9503 c7 -3 16 -2 19 1 4 3 -2 6 -13 5 -11 0 -14 -3 -6 -6z"/>
<path d="M4398 9493 c6 -2 18 -2 25 0 6 3 1 5 -13 5 -14 0 -19 -2 -12 -5z"/>
<path d="M4358 9483 c7 -3 16 -2 19 1 4 3 -2 6 -13 5 -11 0 -14 -3 -6 -6z"/>
<path d="M4318 9473 c7 -3 16 -2 19 1 4 3 -2 6 -13 5 -11 0 -14 -3 -6 -6z"/>
<path d="M4278 9463 c7 -3 16 -2 19 1 4 3 -2 6 -13 5 -11 0 -14 -3 -6 -6z"/>
<path d="M4208 9443 c7 -3 16 -2 19 1 4 3 -2 6 -13 5 -11 0 -14 -3 -6 -6z"/>
<path d="M4138 9423 c7 -3 16 -2 19 1 4 3 -2 6 -13 5 -11 0 -14 -3 -6 -6z"/>
<path d="M3910 9350 c-8 -5 -10 -10 -5 -10 6 0 17 5 25 10 8 5 11 10 5 10 -5
0 -17 -5 -25 -10z"/>
<path d="M6760 9330 c8 -5 20 -10 25 -10 6 0 3 5 -5 10 -8 5 -19 10 -25 10 -5
0 -3 -5 5 -10z"/>
<path d="M6810 9310 c8 -5 20 -10 25 -10 6 0 3 5 -5 10 -8 5 -19 10 -25 10 -5
0 -3 -5 5 -10z"/>
<path d="M6889 9279 c24 -11 46 -18 48 -15 4 4 -73 36 -85 35 -4 0 13 -9 37
-20z"/>
<path d="M6980 9240 c19 -11 40 -19 45 -19 6 0 -6 8 -25 19 -19 11 -39 19 -45
19 -5 0 6 -8 25 -19z"/>
<path d="M3640 9240 c-8 -5 -10 -10 -5 -10 6 0 17 5 25 10 8 5 11 10 5 10 -5
0 -17 -5 -25 -10z"/>
<path d="M7081 9196 c10 -9 109 -56 109 -51 0 5 -95 55 -106 55 -4 0 -5 -2 -3
-4z"/>
<path d="M7240 9115 c0 -2 18 -14 40 -25 22 -11 40 -18 40 -15 0 2 -18 14 -40
25 -22 11 -40 18 -40 15z"/>
<path d="M3334 9084 c-18 -14 -18 -15 4 -4 12 6 22 13 22 15 0 8 -5 6 -26 -11z"/>
<path d="M7330 9066 c0 -3 14 -12 30 -21 17 -9 30 -13 30 -11 0 3 -13 12 -30
21 -16 9 -30 13 -30 11z"/>
<path d="M3264 9044 c-18 -14 -18 -15 4 -4 12 6 22 13 22 15 0 8 -5 6 -26 -11z"/>
<path d="M3214 9014 c-18 -14 -18 -15 4 -4 12 6 22 13 22 15 0 8 -5 6 -26 -11z"/>
<path d="M7400 9026 c0 -3 9 -10 20 -16 11 -6 20 -8 20 -6 0 3 -9 10 -20 16
-11 6 -20 8 -20 6z"/>
<path d="M3164 8984 c-18 -14 -18 -15 4 -4 12 6 22 13 22 15 0 8 -5 6 -26 -11z"/>
<path d="M7465 8985 c11 -9 29 -21 40 -26 l20 -10 -20 16 c-11 9 -29 21 -40
26 l-20 10 20 -16z"/>
<path d="M7630 8878 c23 -23 125 -94 118 -82 -4 6 -35 30 -70 54 -35 24 -56
36 -48 28z"/>
<path d="M2955 8844 l-30 -26 33 22 c17 12 32 23 32 26 0 7 -4 5 -35 -22z"/>
<path d="M2899 8803 c-13 -16 -12 -17 4 -4 16 13 21 21 13 21 -2 0 -10 -8 -17
-17z"/>
<path d="M2859 8773 c-13 -16 -12 -17 4 -4 9 7 17 15 17 17 0 8 -8 3 -21 -13z"/>
<path d="M7760 8786 c0 -2 8 -10 18 -17 15 -13 16 -12 3 4 -13 16 -21 21 -21
13z"/>
<path d="M2819 8743 c-13 -16 -12 -17 4 -4 16 13 21 21 13 21 -2 0 -10 -8 -17
-17z"/>
<path d="M7800 8757 c0 -2 35 -33 78 -67 42 -35 69 -54 59 -43 -20 23 -137
117 -137 110z"/>
<path d="M2769 8703 c-13 -16 -12 -17 4 -4 9 7 17 15 17 17 0 8 -8 3 -21 -13z"/>
<path d="M2714 8658 l-19 -23 23 19 c21 18 27 26 19 26 -2 0 -12 -10 -23 -22z"/>
<path d="M2644 8598 l-29 -33 33 29 c17 17 32 31 32 33 0 8 -8 1 -36 -29z"/>
<path d="M7960 8627 c0 -2 15 -16 33 -33 l32 -29 -29 33 c-28 30 -36 37 -36
29z"/>
<path d="M8090 8505 c35 -36 67 -65 69 -65 3 0 -24 29 -59 65 -35 36 -67 65
-69 65 -3 0 24 -29 59 -65z"/>
<path d="M2555 8518 l-40 -43 43 40 c23 21 42 40 42 42 0 8 -9 0 -45 -39z"/>
<path d="M8200 8406 c0 -2 8 -10 18 -17 15 -13 16 -12 3 4 -13 16 -21 21 -21
13z"/>
<path d="M8320 8275 c30 -30 57 -55 59 -55 3 0 -19 25 -49 55 -30 30 -57 55
-59 55 -3 0 19 -25 49 -55z"/>
<path d="M2305 8268 l-40 -43 43 40 c23 21 42 40 42 42 0 8 -9 0 -45 -39z"/>
<path d="M8380 8207 c0 -2 15 -16 33 -33 l32 -29 -29 33 c-28 30 -36 37 -36
29z"/>
<path d="M2219 8173 l-24 -28 28 24 c25 23 32 31 24 31 -2 0 -14 -12 -28 -27z"/>
<path d="M8460 8115 c13 -14 26 -25 28 -25 3 0 -5 11 -18 25 -13 14 -26 25
-28 25 -3 0 5 -11 18 -25z"/>
<path d="M2164 8108 l-19 -23 23 19 c21 18 27 26 19 26 -2 0 -12 -10 -23 -22z"/>
<path d="M8505 8060 c10 -11 20 -20 23 -20 3 0 -3 9 -13 20 -10 11 -20 20 -23
20 -3 0 3 -9 13 -20z"/>
<path d="M2119 8053 c-13 -16 -12 -17 4 -4 9 7 17 15 17 17 0 8 -8 3 -21 -13z"/>
<path d="M8560 7990 c17 -22 34 -40 37 -40 2 0 -10 18 -27 40 -17 22 -34 40
-37 40 -2 0 10 -18 27 -40z"/>
<path d="M2079 8003 c-13 -16 -12 -17 4 -4 9 7 17 15 17 17 0 8 -8 3 -21 -13z"/>
<path d="M2049 7963 c-13 -16 -12 -17 4 -4 16 13 21 21 13 21 -2 0 -10 -8 -17
-17z"/>
<path d="M2019 7923 c-13 -16 -12 -17 4 -4 16 13 21 21 13 21 -2 0 -10 -8 -17
-17z"/>
<path d="M8620 7910 c12 -16 24 -30 26 -30 3 0 -4 14 -16 30 -12 17 -24 30
-26 30 -3 0 4 -13 16 -30z"/>
<path d="M1960 7840 c-12 -16 -19 -30 -16 -30 2 0 14 14 26 30 12 17 19 30 16
30 -2 0 -14 -13 -26 -30z"/>
<path d="M8711 7778 c57 -86 94 -135 74 -98 -19 34 -126 190 -131 190 -2 0 23
-42 57 -92z"/>
<path d="M8800 7640 c6 -11 13 -20 16 -20 2 0 0 9 -6 20 -6 11 -13 20 -16 20
-2 0 0 -9 6 -20z"/>
<path d="M1800 7590 c-6 -11 -8 -20 -6 -20 3 0 10 9 16 20 6 11 8 20 6 20 -3
0 -10 -9 -16 -20z"/>
<path d="M8830 7590 c6 -11 13 -20 16 -20 2 0 0 9 -6 20 -6 11 -13 20 -16 20
-2 0 0 -9 6 -20z"/>
<path d="M10840 6135 l0 -1445 185 0 185 0 2 463 3 462 270 6 c291 6 330 12
469 74 216 96 433 321 516 537 50 130 63 206 63 373 0 129 -4 164 -26 247 -94
355 -391 635 -757 714 -50 10 -165 14 -487 14 l-423 0 0 -1445z m898 1040
c198 -63 360 -237 408 -441 21 -90 14 -233 -15 -326 -46 -143 -178 -292 -319
-359 -102 -49 -177 -60 -400 -57 l-197 3 -3 603 -2 602 224 0 c212 0 230 -1
304 -25z"/>
<path d="M12913 6533 c3 -1045 3 -1048 25 -1131 87 -329 347 -596 679 -699 83
-26 99 -27 278 -27 178 0 196 2 278 27 355 109 615 398 691 769 14 68 16 203
16 1093 l0 1015 -190 0 -190 0 0 -997 c0 -1091 1 -1071 -59 -1195 -51 -107
-152 -211 -267 -275 -155 -86 -385 -88 -548 -6 -112 56 -222 167 -276 278 -62
127 -60 83 -60 1187 l0 1008 -190 0 -191 0 4 -1047z"/>
<path d="M15420 6135 l0 -1445 705 0 705 0 0 190 0 190 -520 0 -520 0 0 1255
0 1255 -185 0 -185 0 0 -1445z"/>
<path d="M17270 6135 l0 -1445 705 0 705 0 0 190 0 190 -520 0 -520 0 0 1255
0 1255 -185 0 -185 0 0 -1445z"/>
<path d="M19150 6135 l0 -1445 185 0 185 0 0 1445 0 1445 -185 0 -185 0 0
-1445z"/>
<path d="M20100 6135 l0 -1445 185 0 185 0 0 1035 c0 569 3 1035 8 1035 4 0
276 -466 606 -1035 l598 -1035 164 0 164 0 0 1445 0 1445 -190 0 -190 0 -2
-1022 -3 -1021 -590 1021 -590 1022 -172 0 -173 0 0 -1445z"/>
<path d="M23425 7568 c-45 -125 -1035 -2848 -1040 -2861 -7 -16 5 -17 195 -15
l203 3 168 465 c93 256 176 484 185 508 l16 42 382 0 382 0 184 -510 185 -510
201 0 201 0 -525 1445 -526 1445 -103 0 c-74 0 -105 -4 -108 -12z m233 -1151
l120 -327 -244 0 -243 0 38 108 c32 89 67 183 196 541 3 8 7 12 10 10 2 -2 57
-152 123 -332z"/>
<path d="M25140 6135 l0 -1445 185 0 185 0 0 1035 c0 569 3 1035 8 1035 4 -1
207 -347 452 -770 244 -422 447 -767 451 -765 3 3 206 350 450 773 l444 769 3
-1038 2 -1039 185 0 185 0 0 1445 0 1445 -171 -2 -171 -3 -462 -802 c-253
-441 -463 -802 -466 -803 -3 0 -215 362 -470 805 l-465 804 -172 1 -173 0 0
-1445z"/>
<path d="M1770 7540 c-6 -11 -8 -20 -6 -20 3 0 10 9 16 20 6 11 8 20 6 20 -3
0 -10 -9 -16 -20z"/>
<path d="M8865 7530 c9 -16 18 -30 21 -30 2 0 -2 14 -11 30 -9 17 -18 30 -21
30 -2 0 2 -13 11 -30z"/>
<path d="M8920 7430 c17 -33 33 -60 35 -60 3 0 -8 27 -25 60 -17 33 -33 60
-35 60 -3 0 8 -27 25 -60z"/>
<path d="M1715 7440 c-9 -16 -13 -30 -11 -30 3 0 12 14 21 30 9 17 13 30 11
30 -3 0 -12 -13 -21 -30z"/>
<path d="M9001 7275 c0 -5 11 -30 24 -55 13 -25 24 -40 24 -35 0 6 -11 30 -24
55 -13 25 -24 41 -24 35z"/>
<path d="M1607 7225 c-24 -50 -20 -58 4 -12 11 22 19 41 17 43 -3 2 -12 -12
-21 -31z"/>
<path d="M9052 7165 c0 -13 56 -133 57 -120 0 6 -13 37 -29 70 -15 33 -28 56
-28 50z"/>
<path d="M1566 7135 c-9 -26 -7 -32 5 -12 6 10 9 21 6 23 -2 3 -7 -2 -11 -11z"/>
<path d="M1536 7065 c-9 -26 -7 -32 5 -12 6 10 9 21 6 23 -2 3 -7 -2 -11 -11z"/>
<path d="M1516 7015 c-9 -26 -7 -32 5 -12 6 10 9 21 6 23 -2 3 -7 -2 -11 -11z"/>
<path d="M9110 7025 c0 -5 5 -17 10 -25 5 -8 10 -10 10 -5 0 6 -5 17 -10 25
-5 8 -10 11 -10 5z"/>
<path d="M9136 6960 c3 -14 11 -32 16 -40 6 -10 7 -7 2 10 -3 14 -11 32 -16
40 -6 10 -7 7 -2 -10z"/>
<path d="M9172 6865 c0 -5 6 -26 13 -45 7 -19 14 -28 14 -20 0 8 -6 29 -14 45
-7 17 -13 26 -13 20z"/>
<path d="M9222 6710 c0 -8 6 -31 13 -50 7 -19 13 -28 13 -20 0 8 -6 31 -13 50
-7 19 -13 28 -13 20z"/>
<path d="M1401 6674 c0 -11 3 -14 6 -6 3 7 2 16 -1 19 -3 4 -6 -2 -5 -13z"/>
<path d="M1381 6604 c0 -11 3 -14 6 -6 3 7 2 16 -1 19 -3 4 -6 -2 -5 -13z"/>
<path d="M9251 6604 c0 -11 3 -14 6 -6 3 7 2 16 -1 19 -3 4 -6 -2 -5 -13z"/>
<path d="M9265 6559 c29 -160 7 -506 -52 -809 -167 -875 -701 -1660 -1574
-2317 -334 -251 -774 -505 -1149 -663 -227 -96 -413 -181 -611 -281 -495 -249
-786 -473 -864 -666 -12 -29 -25 -56 -29 -60 -13 -14 -5 -75 18 -126 29 -65
74 -119 140 -163 l49 -33 -69 -4 c-38 -2 71 -3 241 -2 245 2 343 7 470 24 457
59 872 184 1278 383 1088 534 1883 1517 2176 2693 118 471 148 1002 85 1497
-17 140 -76 441 -98 508 -9 25 -14 33 -11 19z"/>
<path d="M1361 6534 c0 -11 3 -14 6 -6 3 7 2 16 -1 19 -3 4 -6 -2 -5 -13z"/>
<path d="M1351 6494 c0 -11 3 -14 6 -6 3 7 2 16 -1 19 -3 4 -6 -2 -5 -13z"/>
<path d="M1341 6454 c0 -11 3 -14 6 -6 3 7 2 16 -1 19 -3 4 -6 -2 -5 -13z"/>
<path d="M1331 6404 c0 -11 3 -14 6 -6 3 7 2 16 -1 19 -3 4 -6 -2 -5 -13z"/>
<path d="M1321 6364 c0 -11 3 -14 6 -6 3 7 2 16 -1 19 -3 4 -6 -2 -5 -13z"/>
<path d="M1312 6310 c0 -14 2 -19 5 -12 2 6 2 18 0 25 -3 6 -5 1 -5 -13z"/>
<path d="M3110 6304 c-75 -33 -115 -98 -108 -180 8 -97 82 -166 179 -166 126
0 214 129 168 249 -33 89 -149 136 -239 97z m165 -29 c14 -13 25 -33 25 -45 0
-29 -35 -60 -68 -60 -59 0 -87 76 -42 112 30 25 56 23 85 -7z"/>
<path d="M1302 6260 c0 -14 2 -19 5 -12 2 6 2 18 0 25 -3 6 -5 1 -5 -13z"/>
<path d="M1292 6205 c0 -16 2 -22 5 -12 2 9 2 23 0 30 -3 6 -5 -1 -5 -18z"/>
<path d="M1282 6145 c0 -16 2 -22 5 -12 2 9 2 23 0 30 -3 6 -5 -1 -5 -18z"/>
<path d="M1272 6075 c0 -16 2 -22 5 -12 2 9 2 23 0 30 -3 6 -5 -1 -5 -18z"/>
<path d="M1262 6000 c0 -19 2 -27 5 -17 2 9 2 25 0 35 -3 9 -5 1 -5 -18z"/>
<path d="M1253 5900 c0 -25 2 -35 4 -22 2 12 2 32 0 45 -2 12 -4 2 -4 -23z"/>
<path d="M3980 5879 c-25 -5 -83 -16 -130 -25 -238 -44 -625 -195 -904 -351
-114 -64 -257 -184 -401 -335 -191 -201 -324 -389 -435 -613 -114 -230 -167
-418 -206 -728 -16 -129 -16 -145 0 -275 9 -75 26 -182 38 -237 11 -55 20
-107 21 -115 0 -20 93 -149 200 -279 381 -458 821 -808 1346 -1070 220 -110
620 -262 751 -285 50 -8 34 -2 -133 49 -161 50 -373 130 -507 192 -69 32 -95
51 -131 94 -107 126 -172 247 -212 393 -29 108 -30 304 -3 421 79 343 282 668
654 1047 l164 167 -63 70 c-177 194 -268 437 -231 614 6 29 18 90 27 137 60
306 255 495 602 582 77 20 115 22 300 23 117 0 213 3 213 6 0 21 -107 213
-144 258 -148 180 -370 272 -651 270 -66 -1 -140 -5 -165 -10z"/>
<path d="M1243 5775 c0 -33 2 -45 4 -27 2 18 2 45 0 60 -2 15 -4 0 -4 -33z"/>
<path d="M1234 5510 c0 -74 1 -105 3 -67 2 37 2 97 0 135 -2 37 -3 6 -3 -68z"/>
<path d="M1243 5270 c0 -41 2 -58 4 -37 2 20 2 54 0 75 -2 20 -4 3 -4 -38z"/>
<path d="M1253 5135 c0 -27 2 -38 4 -22 2 15 2 37 0 50 -2 12 -4 0 -4 -28z"/>
<path d="M1263 5035 c0 -22 2 -30 4 -17 2 12 2 30 0 40 -3 9 -5 -1 -4 -23z"/>
<path d="M1272 4960 c0 -19 2 -27 5 -17 2 9 2 25 0 35 -3 9 -5 1 -5 -18z"/>
<path d="M1282 4890 c0 -19 2 -27 5 -17 2 9 2 25 0 35 -3 9 -5 1 -5 -18z"/>
<path d="M1292 4825 c0 -16 2 -22 5 -12 2 9 2 23 0 30 -3 6 -5 -1 -5 -18z"/>
<path d="M1302 4770 c0 -14 2 -19 5 -12 2 6 2 18 0 25 -3 6 -5 1 -5 -13z"/>
<path d="M1312 4720 c0 -14 4 -36 8 -50 6 -20 8 -21 8 -5 0 11 -4 34 -8 50 -7
27 -8 27 -8 5z"/>
<path d="M1332 4625 c0 -11 4 -31 8 -45 6 -20 8 -21 8 -5 0 11 -4 31 -8 45 -6
20 -8 21 -8 5z"/>
<path d="M1351 4534 c0 -11 3 -14 6 -6 3 7 2 16 -1 19 -3 4 -6 -2 -5 -13z"/>
<path d="M1361 4494 c0 -11 3 -14 6 -6 3 7 2 16 -1 19 -3 4 -6 -2 -5 -13z"/>
<path d="M1371 4460 c0 -8 4 -24 9 -35 5 -13 9 -14 9 -5 0 8 -4 24 -9 35 -5
13 -9 14 -9 5z"/>
<path d="M1391 4390 c0 -8 4 -24 9 -35 5 -13 9 -14 9 -5 0 8 -4 24 -9 35 -5
13 -9 14 -9 5z"/>
<path d="M1411 4325 c-1 -15 60 -197 65 -192 2 2 -12 48 -30 103 -19 54 -35
95 -35 89z"/>
<path d="M24555 4209 c-76 -52 -100 -107 -100 -234 0 -92 3 -104 30 -153 19
-36 43 -62 70 -78 52 -30 55 -30 55 1 0 15 -10 31 -25 41 -14 9 -38 38 -53 63
-23 40 -27 57 -27 126 1 92 23 146 76 187 23 19 30 31 27 52 l-3 28 -50 -33z"/>
<path d="M25460 4215 c0 -17 15 -39 44 -68 49 -46 66 -92 66 -173 0 -75 -25
-138 -71 -177 -38 -33 -53 -77 -26 -77 26 0 87 52 114 98 26 44 28 55 28 157
0 88 -4 117 -19 145 -26 49 -55 79 -98 101 l-38 19 0 -25z"/>
<path d="M12798 4199 c-53 -15 -123 -81 -143 -134 -26 -65 -17 -160 18 -214
42 -63 97 -94 174 -99 85 -6 141 16 192 74 125 142 36 366 -151 379 -29 2 -70
-1 -90 -6z m129 -60 c64 -24 113 -95 113 -164 0 -105 -102 -188 -208 -169 -51
9 -127 85 -136 136 -24 132 107 244 231 197z"/>
<path d="M13470 4188 c-46 -31 -61 -83 -37 -132 11 -24 31 -42 71 -61 109 -53
134 -109 76 -167 -26 -25 -36 -29 -62 -24 -40 8 -65 31 -73 66 -5 22 -10 27
-26 23 -29 -8 -34 -30 -16 -69 23 -47 71 -74 131 -74 43 0 53 4 86 38 75 75
57 175 -42 230 -81 46 -98 61 -98 85 0 48 57 65 84 26 11 -16 21 -20 40 -15
33 8 33 18 -1 56 -39 43 -87 49 -133 18z"/>
<path d="M15286 4196 c-54 -20 -85 -45 -121 -95 -27 -39 -30 -50 -30 -125 0
-73 3 -87 28 -124 41 -63 97 -95 172 -100 72 -5 117 7 160 42 28 23 29 26 13
42 -17 17 -20 17 -60 -6 -57 -32 -130 -33 -180 -2 -119 74 -109 246 16 303 56
25 103 23 154 -6 36 -20 46 -22 63 -12 23 15 24 20 2 39 -56 49 -152 68 -217
44z"/>
<path d="M18056 4196 c-54 -20 -85 -45 -121 -95 -27 -39 -30 -50 -30 -125 0
-73 3 -87 28 -124 41 -63 97 -95 172 -100 72 -5 117 7 160 42 28 23 29 26 13
42 -17 17 -20 17 -60 -6 -57 -32 -130 -33 -180 -2 -119 74 -109 246 16 303 56
25 103 23 154 -6 36 -20 46 -22 63 -12 23 15 24 20 2 39 -56 49 -152 68 -217
44z"/>
<path d="M19948 4199 c-53 -15 -123 -81 -143 -134 -26 -65 -17 -160 18 -214
42 -63 97 -94 174 -99 85 -6 141 16 192 74 125 142 36 366 -151 379 -29 2 -70
-1 -90 -6z m129 -60 c64 -24 113 -95 113 -164 0 -105 -102 -188 -208 -169 -51
9 -127 85 -136 136 -24 132 107 244 231 197z"/>
<path d="M21228 4199 c-53 -15 -123 -81 -143 -134 -26 -65 -17 -160 18 -214
42 -63 97 -94 174 -99 85 -6 141 16 192 74 125 142 36 366 -151 379 -29 2 -70
-1 -90 -6z m129 -60 c64 -24 113 -95 113 -164 0 -105 -102 -188 -208 -169 -51
9 -127 85 -136 136 -24 132 107 244 231 197z"/>
<path d="M21996 4196 c-54 -20 -85 -45 -121 -95 -27 -39 -30 -50 -30 -125 0
-73 3 -87 28 -124 15 -23 46 -54 69 -69 37 -25 51 -28 123 -28 72 0 86 3 123
28 l42 27 0 80 0 80 -30 0 -30 0 0 -69 0 -69 -45 -17 c-127 -49 -261 71 -226
203 15 53 46 91 95 113 56 25 103 23 154 -6 36 -20 46 -22 63 -12 23 15 24 20
2 39 -56 49 -152 68 -217 44z"/>
<path d="M23550 4188 c-46 -31 -61 -83 -37 -132 11 -24 31 -42 71 -61 109 -53
134 -109 76 -167 -26 -25 -36 -29 -62 -24 -40 8 -65 31 -73 66 -5 22 -10 27
-26 23 -29 -8 -34 -30 -16 -69 23 -47 71 -74 131 -74 43 0 53 4 86 38 75 75
57 175 -42 230 -81 46 -98 61 -98 85 0 48 57 65 84 26 11 -16 21 -20 40 -15
33 8 33 18 -1 56 -39 43 -87 49 -133 18z"/>
<path d="M11035 4188 c-59 -158 -155 -423 -155 -430 0 -4 13 -8 29 -8 28 0 31
4 56 80 l27 80 62 0 63 0 27 -80 c27 -75 30 -80 57 -80 16 0 29 3 29 8 0 4
-36 104 -79 222 -54 149 -83 216 -95 218 -9 2 -18 -2 -21 -10z m49 -195 c7
-21 4 -23 -28 -23 -42 0 -41 0 -19 59 l17 45 12 -30 c6 -16 15 -39 18 -51z"/>
<path d="M11530 3975 l0 -225 125 0 125 0 0 30 0 30 -95 0 -95 0 0 70 0 70 95
0 c95 0 95 0 95 25 0 25 0 25 -95 25 l-95 0 0 75 0 75 95 0 c95 0 95 0 95 25
l0 25 -125 0 -125 0 0 -225z"/>
<path d="M12080 3975 l0 -225 30 0 30 0 0 75 c0 74 0 75 25 75 21 0 35 -14 73
-75 43 -68 50 -75 80 -75 17 0 32 2 32 5 0 3 -21 37 -47 76 l-47 70 31 25 c32
25 63 88 63 128 0 39 -43 108 -80 127 -25 14 -56 19 -112 19 l-78 0 0 -225z
m183 135 c38 -43 36 -83 -7 -126 -28 -28 -42 -34 -75 -34 l-41 0 0 101 0 102
48 -7 c35 -4 54 -14 75 -36z"/>
<path d="M13950 3975 l0 -225 30 0 30 0 0 75 0 75 51 0 c67 0 115 29 140 84
25 54 24 84 -4 136 -32 61 -73 80 -169 80 l-78 0 0 -225z m183 135 c38 -43 36
-83 -7 -126 -28 -28 -42 -34 -75 -34 l-41 0 0 101 0 102 48 -7 c35 -4 54 -14
75 -36z"/>
<path d="M14645 4188 c-59 -158 -155 -423 -155 -430 0 -4 13 -8 29 -8 28 0 31
4 56 80 l27 80 62 0 63 0 27 -80 c27 -75 30 -80 57 -80 16 0 29 3 29 8 0 4
-36 104 -79 222 -54 149 -83 216 -95 218 -9 2 -18 -2 -21 -10z m49 -195 c7
-21 4 -23 -28 -23 -42 0 -41 0 -19 59 l17 45 12 -30 c6 -16 15 -39 18 -51z"/>
<path d="M15830 3975 l0 -225 125 0 125 0 0 30 0 30 -95 0 -95 0 0 70 0 70 95
0 c95 0 95 0 95 25 0 25 0 25 -95 25 l-95 0 0 75 0 75 95 0 c95 0 95 0 95 25
l0 25 -125 0 -125 0 0 -225z"/>
<path d="M16800 4175 c0 -23 3 -25 50 -25 l50 0 0 -200 0 -200 30 0 30 0 0
200 0 200 50 0 c47 0 50 2 50 25 l0 25 -130 0 -130 0 0 -25z"/>
<path d="M17350 3975 l0 -225 125 0 125 0 0 30 0 30 -95 0 -95 0 0 70 0 70 95
0 c95 0 95 0 95 25 0 25 0 25 -95 25 l-95 0 0 75 0 75 95 0 c95 0 95 0 95 25
l0 25 -125 0 -125 0 0 -225z"/>
<path d="M18600 3975 l0 -225 30 0 30 0 0 95 0 95 70 0 70 0 0 -95 0 -95 30 0
30 0 0 225 0 225 -30 0 -30 0 0 -105 0 -105 -70 0 -70 0 0 105 0 105 -30 0
-30 0 0 -225z"/>
<path d="M19170 3975 l0 -225 30 0 30 0 2 161 3 161 93 -161 c80 -138 97 -161
118 -161 l24 0 0 225 0 225 -30 0 -29 0 -3 -155 -3 -154 -89 154 c-82 143 -91
155 -117 155 l-29 0 0 -225z"/>
<path d="M20550 3975 l0 -225 110 0 110 0 0 30 0 30 -80 0 -80 0 0 195 0 195
-30 0 -30 0 0 -225z"/>
<path d="M22560 3975 l0 -225 30 0 30 0 0 225 0 225 -30 0 -30 0 0 -225z"/>
<path d="M22930 3975 l0 -225 125 0 125 0 0 30 0 30 -95 0 -95 0 0 70 0 70 95
0 c95 0 95 0 95 25 0 25 0 25 -95 25 l-95 0 0 75 0 75 95 0 c95 0 95 0 95 25
l0 25 -125 0 -125 0 0 -225z"/>
<path d="M24920 3975 l0 -225 30 0 30 0 0 75 0 75 51 0 c67 0 115 29 140 84
25 54 24 84 -4 136 -32 61 -73 80 -169 80 l-78 0 0 -225z m183 135 c38 -43 36
-83 -7 -126 -28 -28 -42 -34 -75 -34 l-41 0 0 101 0 102 48 -7 c35 -4 54 -14
75 -36z"/>
<path d="M26360 3975 l0 -225 110 0 110 0 0 30 0 30 -80 0 -80 0 0 195 0 195
-30 0 -30 0 0 -225z"/>
<path d="M26860 4175 c0 -23 3 -25 50 -25 l50 0 0 -200 0 -200 30 0 30 0 0
200 0 200 50 0 c47 0 50 2 50 25 l0 25 -130 0 -130 0 0 -25z"/>
<path d="M27410 3974 l0 -227 64 5 c128 11 207 85 214 204 10 148 -81 244
-230 244 l-48 0 0 -226z m151 143 c50 -33 82 -100 75 -157 -11 -79 -79 -150
-145 -150 -20 0 -21 4 -21 165 l0 165 29 0 c15 0 43 -10 62 -23z"/>
<path d="M1490 4085 c0 -5 5 -17 10 -25 5 -8 10 -10 10 -5 0 6 -5 17 -10 25
-5 8 -10 11 -10 5z"/>
<path d="M1511 4038 c-1 -12 31 -89 35 -85 3 2 -4 24 -15 48 -11 24 -20 41
-20 37z"/>
<path d="M1551 3935 c0 -5 6 -21 14 -35 8 -14 14 -20 14 -15 0 6 -6 21 -14 35
-8 14 -14 21 -14 15z"/>
<path d="M1581 3865 c0 -5 8 -26 19 -45 11 -19 19 -30 19 -25 0 6 -8 26 -19
45 -11 19 -19 31 -19 25z"/>
<path d="M1630 3756 c0 -10 60 -126 65 -126 3 0 -9 28 -26 63 -33 65 -39 75
-39 63z"/>
<path d="M1730 3560 c11 -22 23 -40 25 -40 3 0 -4 18 -15 40 -11 22 -23 40
-25 40 -3 0 4 -18 15 -40z"/>
<path d="M18383 3495 c-234 -65 -348 -245 -285 -452 34 -109 86 -186 215 -317
64 -66 117 -126 117 -134 0 -12 -10 -14 -50 -9 -65 8 -136 40 -179 80 -60 58
-113 207 -80 228 19 11 -4 34 -25 26 -12 -5 -16 -21 -16 -64 0 -151 137 -278
311 -291 57 -4 70 -2 75 11 7 19 -23 72 -62 107 -49 45 -145 172 -175 231 -89
178 -76 314 41 422 200 186 571 182 475 -4 -9 -16 -40 -58 -70 -93 -39 -47
-51 -66 -42 -75 21 -21 46 -11 80 37 105 143 103 227 -6 284 -35 18 -62 23
-157 25 -78 2 -132 -2 -167 -12z"/>
<path d="M1780 3470 c6 -11 13 -20 16 -20 2 0 0 9 -6 20 -6 11 -13 20 -16 20
-2 0 0 -9 6 -20z"/>
<path d="M20838 3313 c-208 -324 -278 -466 -278 -567 0 -63 31 -106 76 -106
39 0 106 43 153 97 l41 48 0 -37 c0 -62 47 -87 100 -52 14 10 46 37 73 63 47
45 47 45 47 18 0 -35 32 -67 68 -67 31 0 98 39 159 92 76 67 77 66 35 -19
l-41 -81 -68 -22 c-110 -36 -225 -97 -286 -150 -133 -119 -157 -298 -48 -355
42 -21 69 -19 129 11 83 41 175 164 300 402 60 114 71 129 109 148 23 12 57
31 77 42 l34 20 -15 -43 c-19 -57 -14 -89 14 -93 16 -2 50 25 136 108 63 61
134 125 157 143 50 36 50 45 -4 -111 -41 -117 -44 -147 -17 -162 28 -14 33
-13 27 8 -9 26 16 89 64 171 51 86 60 129 31 155 -14 13 -28 16 -45 12 -14 -3
-95 -74 -181 -158 -85 -83 -158 -148 -161 -145 -7 7 40 99 89 172 103 153 302
432 320 448 35 31 241 14 281 -23 5 -5 -14 -44 -43 -91 -127 -199 -181 -327
-181 -426 0 -72 19 -103 62 -103 24 0 43 13 94 65 35 36 66 65 69 65 3 0 5 -9
5 -19 0 -31 48 -80 89 -91 66 -18 154 12 230 76 l41 35 -6 -44 c-6 -38 -3 -47
13 -56 23 -12 48 11 103 94 50 75 133 185 141 185 3 0 9 -15 13 -32 4 -18 18
-50 31 -70 21 -31 31 -38 58 -37 27 0 29 2 12 9 -33 13 -45 34 -55 95 -10 62
-23 85 -49 85 -9 0 -55 -58 -111 -141 -52 -77 -101 -145 -108 -151 -26 -22 1
27 76 141 60 90 73 117 65 130 -30 48 -82 6 -148 -121 -20 -37 -55 -83 -78
-104 -79 -69 -184 -102 -236 -74 -31 16 -45 63 -31 104 11 35 11 35 59 29 89
-10 173 40 187 112 13 71 -48 108 -138 84 -58 -15 -130 -89 -152 -157 -11 -34
-37 -72 -78 -116 -97 -107 -123 -109 -114 -9 6 72 54 167 176 351 80 123 104
153 118 147 180 -69 427 -64 508 12 20 19 25 31 22 65 -4 49 -28 66 -28 20 0
-67 -113 -117 -265 -116 -85 1 -209 24 -228 43 -5 5 3 31 17 57 30 56 32 76
11 94 -23 19 -40 7 -85 -60 -25 -37 -47 -59 -55 -56 -54 20 -150 45 -201 51
l-62 7 11 33 c8 26 7 38 -3 50 -24 28 -47 17 -86 -44 -28 -44 -49 -64 -76 -75
-43 -16 -59 -43 -36 -60 13 -9 2 -32 -74 -151 -48 -77 -106 -175 -128 -217
-29 -55 -51 -83 -78 -100 -47 -29 -112 -59 -112 -51 0 3 25 53 56 110 46 85
52 104 39 109 -8 4 -24 4 -36 1 -14 -4 -22 1 -29 17 -13 35 -39 50 -88 50 -87
-1 -188 -64 -237 -149 -14 -23 -58 -74 -99 -113 -79 -77 -116 -92 -116 -47 0
30 48 128 101 207 22 31 39 61 39 66 0 6 -13 15 -30 20 -27 10 -32 8 -55 -22
-13 -17 -40 -66 -59 -108 -23 -50 -55 -97 -95 -141 -106 -113 -171 -124 -171
-28 0 71 62 189 242 457 85 127 158 243 162 259 4 16 2 33 -5 41 -28 34 -47
14 -161 -163z m546 -325 c9 -12 16 -29 16 -38 -1 -29 -240 -220 -276 -220 -49
0 -6 100 80 185 91 91 151 115 180 73z m1108 -10 c12 -36 -7 -75 -50 -104 -41
-28 -103 -39 -131 -24 -21 11 -21 11 9 54 16 24 49 58 72 75 52 39 87 38 100
-1z m-1232 -303 c0 -18 -170 -341 -206 -392 -74 -104 -148 -131 -204 -75 -77
77 -26 235 107 337 80 61 303 157 303 130z"/>
<path d="M1810 3420 c6 -11 13 -20 16 -20 2 0 0 9 -6 20 -6 11 -13 20 -16 20
-2 0 0 -9 6 -20z"/>
<path d="M24792 3403 c-46 -60 -184 -270 -236 -361 l-48 -82 -28 30 c-72 77
-218 6 -311 -151 -39 -68 -78 -108 -130 -135 -62 -32 -65 18 -9 140 43 93 49
135 24 160 -43 44 -142 -19 -240 -152 -32 -44 -62 -81 -67 -81 -4 -1 -1 9 6
22 84 136 109 188 97 202 -32 38 -77 0 -135 -114 -45 -90 -172 -210 -190 -180
-13 20 6 76 55 162 28 48 50 93 50 101 0 21 -30 28 -55 12 -20 -13 -24 -13
-42 12 -42 56 -167 25 -251 -62 -78 -81 -105 -173 -62 -216 38 -38 85 -19 204
86 80 70 84 72 75 41 -14 -51 -11 -124 7 -141 30 -30 61 -17 142 58 31 29 32
29 32 7 0 -30 18 -61 35 -61 8 0 36 33 63 73 55 81 142 173 190 200 31 17 32
17 32 0 0 -10 -11 -53 -25 -96 -29 -89 -32 -143 -9 -175 28 -40 78 -27 151 41
l31 29 7 -23 c29 -94 91 -78 247 61 40 36 69 56 64 45 -17 -45 -28 -114 -22
-139 8 -31 44 -43 78 -26 29 15 148 131 148 144 0 6 -30 -19 -67 -56 -102
-100 -141 -112 -128 -39 14 81 111 242 351 585 52 75 54 79 38 97 -25 27 -39
24 -72 -18z m-324 -416 c6 -6 13 -24 17 -38 5 -22 -5 -37 -93 -120 -95 -92
-161 -137 -182 -124 -42 26 60 186 166 262 51 35 75 41 92 20z m-950 -9 c26
-26 9 -54 -86 -142 -85 -77 -150 -124 -174 -126 -18 -1 -6 60 20 101 49 76
171 177 218 179 5 0 15 -5 22 -12z"/>
<path d="M1840 3370 c6 -11 13 -20 16 -20 2 0 0 9 -6 20 -6 11 -13 20 -16 20
-2 0 0 -9 6 -20z"/>
<path d="M19366 3308 c-7 -13 -61 -97 -118 -188 -57 -91 -123 -197 -145 -235
-39 -67 -124 -159 -170 -183 -53 -29 -41 43 27 161 28 48 50 93 50 101 0 21
-30 28 -55 12 -20 -13 -24 -13 -42 12 -42 56 -167 25 -251 -62 -78 -81 -105
-173 -62 -216 38 -38 85 -19 204 86 80 70 84 72 75 41 -14 -51 -11 -124 7
-141 23 -24 47 -19 97 19 l45 35 -40 -83 c-22 -45 -56 -129 -76 -187 -56 -167
-50 -320 14 -336 75 -19 177 145 219 355 16 79 16 144 -2 232 -5 27 -5 27 34
16 52 -14 99 -3 165 37 l56 33 11 -41 c32 -129 188 -135 326 -14 l46 41 -7
-51 c-5 -43 -4 -51 13 -61 23 -12 48 11 103 94 50 75 133 185 141 185 3 0 9
-15 13 -32 4 -18 18 -50 31 -70 21 -31 31 -38 58 -37 27 0 29 2 12 9 -33 13
-45 34 -55 95 -10 62 -23 85 -49 85 -9 0 -55 -58 -111 -141 -52 -77 -101 -145
-108 -151 -26 -22 1 27 76 141 60 90 73 117 65 130 -29 46 -80 7 -143 -110
-70 -132 -247 -233 -329 -189 -31 16 -45 63 -31 104 11 35 11 35 59 29 89 -10
173 40 187 112 13 71 -48 108 -138 84 -55 -14 -132 -91 -149 -149 -11 -35 -22
-47 -78 -80 -87 -52 -138 -60 -175 -29 l-27 24 121 190 c151 238 187 309 170
330 -18 22 -47 18 -64 -7z m316 -330 c12 -36 -7 -75 -50 -104 -41 -28 -103
-39 -131 -24 -21 11 -21 11 9 54 16 24 49 58 72 75 52 39 87 38 100 -1z m-784
0 c26 -26 9 -54 -86 -142 -85 -77 -150 -124 -174 -126 -18 -1 -6 60 20 101 49
76 171 177 218 179 5 0 15 -5 22 -12z m235 -368 c1 -113 -19 -199 -72 -315
-37 -79 -99 -150 -124 -142 -42 13 -45 115 -7 227 22 66 103 236 155 324 28
47 29 48 38 25 5 -13 9 -67 10 -119z"/>
<path d="M1897 3280 c9 -17 28 -43 41 -58 13 -15 6 -1 -14 31 -38 59 -58 79
-27 27z"/>
<path d="M21030 3168 c-25 -40 -34 -73 -26 -93 9 -24 19 -18 51 31 17 25 35
52 40 60 7 10 6 17 -5 24 -26 16 -40 11 -60 -22z"/>
<path d="M25132 3021 c-66 -23 -117 -63 -159 -125 -55 -80 -56 -161 -2 -180
47 -16 85 4 228 121 l33 27 -40 -81 -41 -81 -68 -22 c-110 -36 -225 -97 -286
-150 -133 -119 -157 -298 -48 -355 42 -21 69 -19 129 11 83 41 175 164 300
402 60 114 71 129 109 148 23 12 58 31 78 43 l36 21 -7 -49 c-5 -42 -4 -50 13
-60 23 -12 48 11 103 94 50 75 133 185 141 185 3 0 9 -15 13 -32 8 -41 52
-108 70 -108 9 0 17 -16 21 -40 14 -85 89 -131 180 -110 43 10 108 47 177 100
l27 21 7 -25 c3 -15 20 -38 37 -52 27 -23 38 -26 84 -22 42 4 67 14 113 46 60
41 60 41 60 16 0 -33 17 -64 35 -64 8 0 36 33 63 73 55 81 142 173 190 200 31
17 32 17 32 0 0 -10 -11 -53 -25 -96 -40 -126 -28 -197 34 -197 29 0 88 38
130 84 29 31 41 33 41 7 0 -31 48 -80 89 -91 69 -18 157 13 236 82 l46 41 -7
-51 c-5 -43 -4 -51 13 -61 23 -12 48 11 103 94 50 75 133 185 141 185 3 0 9
-15 13 -32 4 -18 18 -50 31 -70 21 -31 31 -38 58 -37 27 0 29 2 12 9 -33 13
-45 34 -55 95 -10 62 -23 85 -49 85 -9 0 -55 -58 -111 -141 -52 -77 -101 -145
-108 -151 -26 -22 1 27 76 141 60 90 73 117 65 130 -29 46 -80 7 -143 -110
-70 -132 -247 -233 -329 -189 -31 16 -45 63 -31 104 11 35 11 35 59 29 89 -10
173 40 187 112 13 71 -48 108 -138 84 -56 -14 -129 -89 -151 -154 -9 -26 -33
-67 -52 -91 -39 -47 -118 -100 -135 -89 -20 12 -10 63 30 149 43 93 49 135 24
160 -43 44 -142 -19 -240 -152 -32 -44 -62 -81 -67 -81 -4 -1 -1 9 6 22 84
136 109 188 97 202 -32 38 -77 0 -135 -115 -50 -99 -142 -169 -222 -170 -52 0
-91 66 -63 110 6 10 23 13 54 11 82 -5 146 45 146 113 0 37 -40 60 -91 53 -56
-7 -108 -51 -141 -117 -61 -125 -236 -224 -317 -180 -31 16 -45 63 -31 104 11
35 11 35 59 29 60 -7 112 10 151 48 59 60 47 140 -24 153 -84 16 -189 -52
-224 -145 -18 -48 -19 -49 -35 -31 -10 11 -22 45 -27 77 -10 62 -23 85 -49 85
-9 0 -55 -58 -111 -141 -52 -77 -101 -145 -108 -151 -26 -22 1 27 76 141 60
90 73 117 65 130 -30 48 -82 6 -147 -119 -22 -42 -46 -72 -68 -85 -46 -28
-108 -55 -108 -48 0 3 25 53 56 110 46 85 52 104 39 109 -8 4 -24 4 -36 1 -14
-4 -22 1 -29 17 -19 51 -79 65 -158 37z m132 -33 c9 -12 16 -29 16 -38 -1 -29
-240 -220 -276 -220 -49 0 -6 100 80 185 91 91 151 115 180 73z m768 -10 c12
-36 -7 -75 -50 -104 -41 -28 -103 -39 -131 -24 -21 11 -21 11 9 54 16 24 49
58 72 75 52 39 87 38 100 -1z m1180 0 c12 -36 -7 -75 -50 -104 -41 -28 -103
-39 -131 -24 -21 11 -21 11 9 54 16 24 49 58 72 75 52 39 87 38 100 -1z m-854
-10 c47 -47 -39 -138 -119 -126 -12 2 -24 8 -26 15 -5 14 53 81 92 105 36 21
37 22 53 6z m-1218 -293 c0 -18 -170 -341 -206 -392 -74 -104 -148 -131 -204
-75 -77 77 -26 235 107 337 80 61 303 157 303 130z"/>
<path d="M20243 2708 c-5 -7 -15 -32 -21 -54 -14 -49 -47 -94 -70 -94 -12 0
-13 -3 -5 -11 17 -17 62 -2 93 31 35 38 59 118 39 131 -19 12 -25 11 -36 -3z"/>
<path d="M4308 1553 c7 -3 16 -2 19 1 4 3 -2 6 -13 5 -11 0 -14 -3 -6 -6z"/>
<path d="M4348 1543 c7 -3 16 -2 19 1 4 3 -2 6 -13 5 -11 0 -14 -3 -6 -6z"/>
<path d="M4400 1530 c14 -4 34 -8 45 -8 16 0 15 2 -5 8 -14 4 -34 8 -45 8 -16
0 -15 -2 5 -8z"/>
<path d="M4478 1513 c6 -2 18 -2 25 0 6 3 1 5 -13 5 -14 0 -19 -2 -12 -5z"/>
<path d="M4528 1503 c6 -2 18 -2 25 0 6 3 1 5 -13 5 -14 0 -19 -2 -12 -5z"/>
<path d="M4595 1490 c17 -4 44 -8 60 -8 25 0 24 2 -10 9 -51 10 -92 10 -50 -1z"/>
<path d="M4703 1473 c9 -2 25 -2 35 0 9 3 1 5 -18 5 -19 0 -27 -2 -17 -5z"/>
<path d="M4778 1463 c12 -2 30 -2 40 0 9 3 -1 5 -23 4 -22 0 -30 -2 -17 -4z"/>
<path d="M4853 1453 c9 -2 25 -2 35 0 9 3 1 5 -18 5 -19 0 -27 -2 -17 -5z"/>
<path d="M4958 1443 c18 -2 45 -2 60 0 15 2 0 4 -33 4 -33 0 -45 -2 -27 -4z"/>
</g>
</svg>
